<svg width="1653" height="993" xmlns="http://www.w3.org/2000/svg" xmlns:xlink="http://www.w3.org/1999/xlink" overflow="hidden"><defs><clipPath id="clip0"><rect x="2161" y="1486" width="1653" height="993"/></clipPath><clipPath id="clip1"><rect x="2162" y="1486" width="1650" height="990"/></clipPath><clipPath id="clip2"><rect x="2355" y="1656" width="1410" height="489"/></clipPath><clipPath id="clip3"><rect x="2355" y="1656" width="1410" height="489"/></clipPath><clipPath id="clip4"><rect x="2162" y="1486" width="1650" height="990"/></clipPath><clipPath id="clip5"><rect x="2162" y="1486" width="1650" height="990"/></clipPath><clipPath id="clip6"><rect x="2162" y="1486" width="1650" height="990"/></clipPath><clipPath id="clip7"><rect x="2162" y="1486" width="1650" height="990"/></clipPath><clipPath id="clip8"><rect x="2162" y="1486" width="1650" height="990"/></clipPath><clipPath id="clip9"><rect x="2162" y="1486" width="1650" height="990"/></clipPath><clipPath id="clip10"><rect x="2162" y="1486" width="1650" height="990"/></clipPath><clipPath id="clip11"><rect x="2162" y="1486" width="1650" height="990"/></clipPath><clipPath id="clip12"><rect x="2162" y="1486" width="1650" height="990"/></clipPath><clipPath id="clip13"><rect x="2162" y="1486" width="1650" height="990"/></clipPath><clipPath id="clip14"><rect x="2162" y="1486" width="1650" height="990"/></clipPath><clipPath id="clip15"><rect x="2162" y="1486" width="1650" height="990"/></clipPath><clipPath id="clip16"><rect x="2162" y="1486" width="1650" height="990"/></clipPath><clipPath id="clip17"><rect x="2162" y="1486" width="1650" height="990"/></clipPath><clipPath id="clip18"><rect x="2162" y="1486" width="1650" height="990"/></clipPath><clipPath id="clip19"><rect x="2162" y="1486" width="1650" height="990"/></clipPath><clipPath id="clip20"><rect x="2162" y="1486" width="1650" height="990"/></clipPath><clipPath id="clip21"><rect x="2162" y="1486" width="1650" height="990"/></clipPath><clipPath id="clip22"><rect x="2162" y="1486" width="1650" height="990"/></clipPath><clipPath id="clip23"><rect x="2162" y="1486" width="1650" height="990"/></clipPath><clipPath id="clip24"><rect x="2162" y="1486" width="1650" height="990"/></clipPath><clipPath id="clip25"><rect x="2162" y="1486" width="1650" height="990"/></clipPath><clipPath id="clip26"><rect x="2162" y="1486" width="1650" height="990"/></clipPath></defs><g clip-path="url(#clip0)" transform="translate(-2161 -1486)"><rect x="2162" y="1487" width="1650" height="990" fill="#FFFFFF"/><g clip-path="url(#clip1)"><path d="M2355.5 2142.5 3761.5 2142.5M2355.5 1980.57 3761.5 1980.57M2355.5 1899.56 3761.5 1899.56M2355.5 1818.56 3761.5 1818.56M2355.5 1737.56 3761.5 1737.56M2355.5 1656.5 3761.5 1656.5" stroke="#D9D9D9" stroke-width="3.4375" stroke-linejoin="round" stroke-miterlimit="10" fill="none"/></g><g clip-path="url(#clip2)"><path d="M2390.08 1971.06 2422.08 1971.06 2422.08 2061.07 2390.08 2061.07ZM2531.08 1887.06 2562.08 1887.06 2562.08 2061.07 2531.08 2061.07ZM2671.09 1841.06 2703.09 1841.06 2703.09 2061.07 2671.09 2061.07ZM2812.09 1810.06 2843.09 1810.06 2843.09 2061.07 2812.09 2061.07ZM2953.1 1786.06 2984.1 1786.06 2984.1 2061.07 2953.1 2061.07ZM3093.1 1765.06 3125.1 1765.06 3125.1 2061.07 3093.1 2061.07ZM3234.11 1747.06 3265.11 1747.06 3265.11 2061.07 3234.11 2061.07ZM3374.11 1729.06 3406.11 1729.06 3406.11 2061.07 3374.11 2061.07ZM3515.12 1722.06 3546.12 1722.06 3546.12 2061.07 3515.12 2061.07ZM3656.12 1710.06 3687.12 1710.06 3687.12 2061.07 3656.12 2061.07Z" fill="#5B9BD5"/></g><g clip-path="url(#clip3)"><path d="M2430.08 2105.07 2462.08 2105.07 2462.08 2061.07 2430.08 2061.07ZM2571.08 2032.07 2602.09 2032.07 2602.09 2061.07 2571.08 2061.07ZM2711.09 1990.07 2743.09 1990.07 2743.09 2061.07 2711.09 2061.07ZM2852.09 1959.06 2883.09 1959.06 2883.09 2061.07 2852.09 2061.07ZM2993.1 1936.06 3024.1 1936.06 3024.1 2061.07 2993.1 2061.07ZM3133.1 1917.06 3165.1 1917.06 3165.1 2061.07 3133.1 2061.07ZM3274.11 1900.06 3305.11 1900.06 3305.11 2061.07 3274.11 2061.07ZM3414.11 1886.06 3446.11 1886.06 3446.11 2061.07 3414.11 2061.07ZM3555.12 1874.06 3587.12 1874.06 3587.12 2061.07 3555.12 2061.07ZM3696.12 1863.06 3727.12 1863.06 3727.12 2061.07 3696.12 2061.07Z" fill="#ED7D31"/></g><g clip-path="url(#clip4)"><path d="M2355.5 2061.5 3761.5 2061.5" stroke="#D9D9D9" stroke-width="3.4375" stroke-linejoin="round" stroke-miterlimit="10" fill="none" fill-rule="evenodd"/></g><g clip-path="url(#clip5)"><text fill="#595959" font-family="Calibri,Calibri_MSFontService,sans-serif" font-weight="400" font-size="41" transform="matrix(1 0 0 1 2265.17 2154)">0.1</text></g><g clip-path="url(#clip6)"><text fill="#595959" font-family="Calibri,Calibri_MSFontService,sans-serif" font-weight="400" font-size="41" transform="matrix(1 0 0 1 2296.48 2073)">1</text></g><g clip-path="url(#clip7)"><text fill="#595959" font-family="Calibri,Calibri_MSFontService,sans-serif" font-weight="400" font-size="41" transform="matrix(1 0 0 1 2275.58 1992)">10</text></g><g clip-path="url(#clip8)"><text fill="#595959" font-family="Calibri,Calibri_MSFontService,sans-serif" font-weight="400" font-size="41" transform="matrix(1 0 0 1 2254.68 1911)">100</text></g><g clip-path="url(#clip9)"><text fill="#595959" font-family="Calibri,Calibri_MSFontService,sans-serif" font-weight="400" font-size="41" transform="matrix(1 0 0 1 2233.78 1830)">1000</text></g><g clip-path="url(#clip10)"><text fill="#595959" font-family="Calibri,Calibri_MSFontService,sans-serif" font-weight="400" font-size="41" transform="matrix(1 0 0 1 2212.88 1749)">10000</text></g><g clip-path="url(#clip11)"><text fill="#595959" font-family="Calibri,Calibri_MSFontService,sans-serif" font-weight="400" font-size="41" transform="matrix(1 0 0 1 2191.98 1668)">100000</text></g><g clip-path="url(#clip12)"><text fill="#595959" font-family="Calibri,Calibri_MSFontService,sans-serif" font-weight="400" font-size="41" transform="matrix(0.707107 -0.707107 0.707107 0.707107 2241.68 2309)">float 1000*1000</text></g><g clip-path="url(#clip13)"><text fill="#595959" font-family="Calibri,Calibri_MSFontService,sans-serif" font-weight="400" font-size="41" transform="matrix(0.707107 -0.707107 0.707107 0.707107 2382.29 2309)">float 2000*2000</text></g><g clip-path="url(#clip14)"><text fill="#595959" font-family="Calibri,Calibri_MSFontService,sans-serif" font-weight="400" font-size="41" transform="matrix(0.707107 -0.707107 0.707107 0.707107 2522.9 2309)">float 3000*3000</text></g><g clip-path="url(#clip15)"><text fill="#595959" font-family="Calibri,Calibri_MSFontService,sans-serif" font-weight="400" font-size="41" transform="matrix(0.707107 -0.707107 0.707107 0.707107 2663.52 2309)">float 4000*4000</text></g><g clip-path="url(#clip16)"><text fill="#595959" font-family="Calibri,Calibri_MSFontService,sans-serif" font-weight="400" font-size="41" transform="matrix(0.707107 -0.707107 0.707107 0.707107 2804.13 2309)">float 5000*5000</text></g><g clip-path="url(#clip17)"><text fill="#595959" font-family="Calibri,Calibri_MSFontService,sans-serif" font-weight="400" font-size="41" transform="matrix(0.707107 -0.707107 0.707107 0.707107 2944.74 2309)">float 6000*6000</text></g><g clip-path="url(#clip18)"><text fill="#595959" font-family="Calibri,Calibri_MSFontService,sans-serif" font-weight="400" font-size="41" transform="matrix(0.707107 -0.707107 0.707107 0.707107 3085.35 2309)">float 7000*7000</text></g><g clip-path="url(#clip19)"><text fill="#595959" font-family="Calibri,Calibri_MSFontService,sans-serif" font-weight="400" font-size="41" transform="matrix(0.707107 -0.707107 0.707107 0.707107 3225.97 2309)">float 8000*8000</text></g><g clip-path="url(#clip20)"><text fill="#595959" font-family="Calibri,Calibri_MSFontService,sans-serif" font-weight="400" font-size="41" transform="matrix(0.707107 -0.707107 0.707107 0.707107 3366.58 2309)">float 9000*9000</text></g><g clip-path="url(#clip21)"><text fill="#595959" font-family="Calibri,Calibri_MSFontService,sans-serif" font-weight="400" font-size="41" transform="matrix(0.707107 -0.707107 0.707107 0.707107 3477.63 2339)">float 10000*10000</text></g><g clip-path="url(#clip22)"><text fill="#595959" font-family="Calibri,Calibri_MSFontService,sans-serif" font-weight="400" font-size="64" transform="matrix(1 0 0 1 2922.33 1582)">Float</text></g><g clip-path="url(#clip23)"><rect x="2765" y="2399" width="22" height="23" fill="#5B9BD5"/></g><g clip-path="url(#clip24)"><text fill="#595959" font-family="Calibri,Calibri_MSFontService,sans-serif" font-weight="400" font-size="41" transform="matrix(1 0 0 1 2796.81 2422)">Traditional</text></g><g clip-path="url(#clip25)"><rect x="3021" y="2399" width="23" height="23" fill="#ED7D31"/></g><g clip-path="url(#clip26)"><text fill="#595959" font-family="Calibri,Calibri_MSFontService,sans-serif" font-weight="400" font-size="41" transform="matrix(1 0 0 1 3053.11 2422)">Optimized</text></g><rect x="2162.5" y="1487.5" width="1650" height="990" stroke="#D9D9D9" stroke-width="3.4375" stroke-linejoin="round" stroke-miterlimit="10" fill="none"/></g></svg>