<svg width="1653" height="993" xmlns="http://www.w3.org/2000/svg" xmlns:xlink="http://www.w3.org/1999/xlink" overflow="hidden"><defs><clipPath id="clip0"><rect x="2060" y="-1" width="1653" height="993"/></clipPath><clipPath id="clip1"><rect x="2060" y="0" width="1650" height="990"/></clipPath><clipPath id="clip2"><rect x="2254" y="169" width="1409" height="481"/></clipPath><clipPath id="clip3"><rect x="2254" y="169" width="1409" height="481"/></clipPath><clipPath id="clip4"><rect x="2060" y="0" width="1650" height="990"/></clipPath><clipPath id="clip5"><rect x="2060" y="0" width="1650" height="990"/></clipPath><clipPath id="clip6"><rect x="2060" y="0" width="1650" height="990"/></clipPath><clipPath id="clip7"><rect x="2060" y="0" width="1650" height="990"/></clipPath><clipPath id="clip8"><rect x="2060" y="0" width="1650" height="990"/></clipPath><clipPath id="clip9"><rect x="2060" y="0" width="1650" height="990"/></clipPath><clipPath id="clip10"><rect x="2060" y="0" width="1650" height="990"/></clipPath><clipPath id="clip11"><rect x="2060" y="0" width="1650" height="990"/></clipPath><clipPath id="clip12"><rect x="2060" y="0" width="1650" height="990"/></clipPath><clipPath id="clip13"><rect x="2060" y="0" width="1650" height="990"/></clipPath><clipPath id="clip14"><rect x="2060" y="0" width="1650" height="990"/></clipPath><clipPath id="clip15"><rect x="2060" y="0" width="1650" height="990"/></clipPath><clipPath id="clip16"><rect x="2060" y="0" width="1650" height="990"/></clipPath><clipPath id="clip17"><rect x="2060" y="0" width="1650" height="990"/></clipPath><clipPath id="clip18"><rect x="2060" y="0" width="1650" height="990"/></clipPath><clipPath id="clip19"><rect x="2060" y="0" width="1650" height="990"/></clipPath><clipPath id="clip20"><rect x="2060" y="0" width="1650" height="990"/></clipPath><clipPath id="clip21"><rect x="2060" y="0" width="1650" height="990"/></clipPath><clipPath id="clip22"><rect x="2060" y="0" width="1650" height="990"/></clipPath><clipPath id="clip23"><rect x="2060" y="0" width="1650" height="990"/></clipPath><clipPath id="clip24"><rect x="2060" y="0" width="1650" height="990"/></clipPath><clipPath id="clip25"><rect x="2060" y="0" width="1650" height="990"/></clipPath><clipPath id="clip26"><rect x="2060" y="0" width="1650" height="990"/></clipPath></defs><g clip-path="url(#clip0)" transform="translate(-2060 1)"><rect x="2061" y="0" width="1650" height="990" fill="#FFFFFF"/><g clip-path="url(#clip1)"><path d="M2254.5 646.5 3660.5 646.5M2254.5 487.516 3660.5 487.516M2254.5 408.514 3660.5 408.514M2254.5 328.511 3660.5 328.511M2254.5 249.508 3660.5 249.508M2254.5 169.5 3660.5 169.5" stroke="#D9D9D9" stroke-width="3.4375" stroke-linejoin="round" stroke-miterlimit="10" fill="none"/></g><g clip-path="url(#clip2)"><path d="M2289.08 501.016 2320.08 501.016 2320.08 567.019 2289.08 567.019ZM2429.08 414.014 2461.08 414.014 2461.08 567.019 2429.08 567.019ZM2570.08 367.012 2601.09 367.012 2601.09 567.019 2570.08 567.019ZM2711.09 337.011 2742.09 337.011 2742.09 567.019 2711.09 567.019ZM2851.09 312.01 2883.09 312.01 2883.09 567.019 2851.09 567.019ZM2992.1 293.01 3023.1 293.01 3023.1 567.019 2992.1 567.019ZM3132.1 276.009 3164.1 276.009 3164.1 567.019 3132.1 567.019ZM3273.11 259.008 3304.11 259.008 3304.11 567.019 3273.11 567.019ZM3414.11 248.008 3445.11 248.008 3445.11 567.019 3414.11 567.019ZM3554.12 235.008 3586.12 235.008 3586.12 567.019 3554.12 567.019Z" fill="#5B9BD5"/></g><g clip-path="url(#clip3)"><path d="M2329.08 612.02 2360.08 612.02 2360.08 567.019 2329.08 567.019ZM2469.08 539.018 2501.08 539.018 2501.08 567.019 2469.08 567.019ZM2610.09 497.016 2641.09 497.016 2641.09 567.019 2610.09 567.019ZM2751.09 467.015 2782.09 467.015 2782.09 567.019 2751.09 567.019ZM2891.09 444.015 2923.1 444.015 2923.1 567.019 2891.09 567.019ZM3032.1 425.014 3063.1 425.014 3063.1 567.019 3032.1 567.019ZM3172.1 409.013 3204.11 409.013 3204.11 567.019 3172.1 567.019ZM3313.11 395.013 3345.11 395.013 3345.11 567.019 3313.11 567.019ZM3454.11 383.013 3485.11 383.013 3485.11 567.019 3454.11 567.019ZM3594.12 372.012 3626.12 372.012 3626.12 567.019 3594.12 567.019Z" fill="#ED7D31"/></g><g clip-path="url(#clip4)"><path d="M2254.5 567.5 3660.5 567.5" stroke="#D9D9D9" stroke-width="3.4375" stroke-linejoin="round" stroke-miterlimit="10" fill="none" fill-rule="evenodd"/></g><g clip-path="url(#clip5)"><text fill="#595959" font-family="Calibri,Calibri_MSFontService,sans-serif" font-weight="400" font-size="41" transform="matrix(1 0 0 1 2163.77 658)">0.1</text></g><g clip-path="url(#clip6)"><text fill="#595959" font-family="Calibri,Calibri_MSFontService,sans-serif" font-weight="400" font-size="41" transform="matrix(1 0 0 1 2195.07 579)">1</text></g><g clip-path="url(#clip7)"><text fill="#595959" font-family="Calibri,Calibri_MSFontService,sans-serif" font-weight="400" font-size="41" transform="matrix(1 0 0 1 2174.17 499)">10</text></g><g clip-path="url(#clip8)"><text fill="#595959" font-family="Calibri,Calibri_MSFontService,sans-serif" font-weight="400" font-size="41" transform="matrix(1 0 0 1 2153.27 420)">100</text></g><g clip-path="url(#clip9)"><text fill="#595959" font-family="Calibri,Calibri_MSFontService,sans-serif" font-weight="400" font-size="41" transform="matrix(1 0 0 1 2132.37 340)">1000</text></g><g clip-path="url(#clip10)"><text fill="#595959" font-family="Calibri,Calibri_MSFontService,sans-serif" font-weight="400" font-size="41" transform="matrix(1 0 0 1 2111.47 261)">10000</text></g><g clip-path="url(#clip11)"><text fill="#595959" font-family="Calibri,Calibri_MSFontService,sans-serif" font-weight="400" font-size="41" transform="matrix(1 0 0 1 2090.57 182)">100000</text></g><g clip-path="url(#clip12)"><text fill="#595959" font-family="Calibri,Calibri_MSFontService,sans-serif" font-weight="400" font-size="41" transform="matrix(0.707107 -0.707107 0.707107 0.707107 2132.92 822)">short 1000*1000</text></g><g clip-path="url(#clip13)"><text fill="#595959" font-family="Calibri,Calibri_MSFontService,sans-serif" font-weight="400" font-size="41" transform="matrix(0.707107 -0.707107 0.707107 0.707107 2273.53 822)">short 2000*2000</text></g><g clip-path="url(#clip14)"><text fill="#595959" font-family="Calibri,Calibri_MSFontService,sans-serif" font-weight="400" font-size="41" transform="matrix(0.707107 -0.707107 0.707107 0.707107 2414.14 822)">short 3000*3000</text></g><g clip-path="url(#clip15)"><text fill="#595959" font-family="Calibri,Calibri_MSFontService,sans-serif" font-weight="400" font-size="41" transform="matrix(0.707107 -0.707107 0.707107 0.707107 2554.75 822)">short 4000*4000</text></g><g clip-path="url(#clip16)"><text fill="#595959" font-family="Calibri,Calibri_MSFontService,sans-serif" font-weight="400" font-size="41" transform="matrix(0.707107 -0.707107 0.707107 0.707107 2695.37 822)">short 5000*5000</text></g><g clip-path="url(#clip17)"><text fill="#595959" font-family="Calibri,Calibri_MSFontService,sans-serif" font-weight="400" font-size="41" transform="matrix(0.707107 -0.707107 0.707107 0.707107 2835.98 822)">short 6000*6000</text></g><g clip-path="url(#clip18)"><text fill="#595959" font-family="Calibri,Calibri_MSFontService,sans-serif" font-weight="400" font-size="41" transform="matrix(0.707107 -0.707107 0.707107 0.707107 2976.59 822)">short 7000*7000</text></g><g clip-path="url(#clip19)"><text fill="#595959" font-family="Calibri,Calibri_MSFontService,sans-serif" font-weight="400" font-size="41" transform="matrix(0.707107 -0.707107 0.707107 0.707107 3117.2 822)">short 8000*8000</text></g><g clip-path="url(#clip20)"><text fill="#595959" font-family="Calibri,Calibri_MSFontService,sans-serif" font-weight="400" font-size="41" transform="matrix(0.707107 -0.707107 0.707107 0.707107 3257.82 822)">short 9000*9000</text></g><g clip-path="url(#clip21)"><text fill="#595959" font-family="Calibri,Calibri_MSFontService,sans-serif" font-weight="400" font-size="41" transform="matrix(0.707107 -0.707107 0.707107 0.707107 3368.87 852)">short 10000*10000</text></g><g clip-path="url(#clip22)"><text fill="#595959" font-family="Calibri,Calibri_MSFontService,sans-serif" font-weight="400" font-size="64" transform="matrix(1 0 0 1 2815.32 95)">Short</text></g><g clip-path="url(#clip23)"><rect x="2663" y="912" width="23" height="23.0001" fill="#5B9BD5"/></g><g clip-path="url(#clip24)"><text fill="#595959" font-family="Calibri,Calibri_MSFontService,sans-serif" font-weight="400" font-size="41" transform="matrix(1 0 0 1 2695.4 935)">Traditional</text></g><g clip-path="url(#clip25)"><rect x="2919" y="912" width="23" height="23.0001" fill="#ED7D31"/></g><g clip-path="url(#clip26)"><text fill="#595959" font-family="Calibri,Calibri_MSFontService,sans-serif" font-weight="400" font-size="41" transform="matrix(1 0 0 1 2951.71 935)">Optimized</text></g><rect x="2061.5" y="0.499836" width="1650" height="990" stroke="#D9D9D9" stroke-width="3.4375" stroke-linejoin="round" stroke-miterlimit="10" fill="none"/></g></svg>